<svg xmlns="http://www.w3.org/2000/svg" viewBox="0 0 100 100.01"><defs><style>.cls-1{fill:#29abe2;stroke:#231f20;stroke-linecap:round;stroke-miterlimit:10;stroke-width:6px;}.cls-2{fill:#534741;}</style></defs><g id="Layer_2" data-name="Layer 2"><path class="cls-1" d="M97,57.15C97,69,87.88,78.87,75.67,81.33A29.63,29.63,0,0,1,54.8,77.89a4.75,4.75,0,0,1-.5-.31c-.2.12-.39.21-.6.31a36.87,36.87,0,0,1-16.29,3.72A34.26,34.26,0,0,1,33,81.34c-16.91-2-30-15.08-30-31C3,35.1,15,22.41,31,19.67,33.35,10.11,42.75,3,54,3c13,0,23.6,9.59,23.6,21.44A19.83,19.83,0,0,1,75.65,33C87.86,35.42,97,45.3,97,57.15Z" transform="translate(0 0.01)"/></g><g id="Layer_1" data-name="Layer 1"><rect class="cls-2" x="46.5" y="34.01" width="7" height="66" rx="3.5"/><rect class="cls-2" x="44.84" y="66.91" width="24.5" height="7" rx="3.5" transform="translate(-33.07 61) rotate(-45)"/><rect class="cls-2" x="39.9" y="42.36" width="7" height="20" rx="3.5" transform="translate(-24.31 46.03) rotate(-45)"/></g></svg>