<svg xmlns="http://www.w3.org/2000/svg" viewBox="0 0 100 100" class="vinyl-svg"><defs>
    <style>
        .cls-1{fill:#fff;}
        .vinyl-svg{
            animation: vinylAnimation 2s linear infinite;
        }
        @keyframes vinylAnimation{
            from {
                transform:rotate(0deg);
            }
            to {
                transform:rotate(360deg)
            }
        }
    </style></defs><g id="Layer_1" data-name="Layer 1"><circle cx="50" cy="50" r="50"/></g><g id="Layer_2" data-name="Layer 2"><path class="cls-1" d="M11.67,38.56c-.95-7.91,3.83-14.78,9.63-19.63a86.4,86.4,0,0,1,9.56-6.66c3.47-2.19,6.82-4,10.92-4.63,4.41-.69,8.95-.3,13.37.05,1.92.16,1.91-2.84,0-3a64.17,64.17,0,0,0-12.7-.15A28.55,28.55,0,0,0,30.48,9C23.42,13.38,16,18.06,11.68,25.46a21.33,21.33,0,0,0-3,13.1c.22,1.89,3.23,1.92,3,0Z" transform="translate(0 0)"/><path class="cls-1" d="M21.41,28.85c2.83-6.58,9.64-9.68,15.79-12.45a1.5,1.5,0,0,0,.54-2,1.54,1.54,0,0,0-2.05-.54c-6.59,3-13.84,6.49-16.87,13.53a1.55,1.55,0,0,0,.54,2.05,1.51,1.51,0,0,0,2.05-.54Z" transform="translate(0 0)"/><path class="cls-1" d="M57.45,96.92c8.8-1.19,17.53-4.06,24.34-10A37.19,37.19,0,0,0,89.68,76.8a143.47,143.47,0,0,0,6.42-13c.76-1.75-1.82-3.28-2.59-1.51q-2.72,6.22-6,12.19A36.74,36.74,0,0,1,80,84.57C73.53,90.29,65,92.89,56.65,94a1.51,1.51,0,0,0-1,1.84,1.54,1.54,0,0,0,1.85,1Z" transform="translate(0 0)"/><circle class="cls-1" cx="50" cy="50" r="16.92"/><circle cx="50" cy="50" r="6.45"/></g></svg>